<svg width="16" height="16" viewBox="0 0 16 16" fill="none" xmlns="http://www.w3.org/2000/svg">
<path d="M10.6699 7.32812C11.7766 7.32812 12.6633 6.43479 12.6633 5.32812C12.6633 4.22146 11.7766 3.32812 10.6699 3.32812C9.56325 3.32812 8.66992 4.22146 8.66992 5.32812C8.66992 6.43479 9.56325 7.32812 10.6699 7.32812ZM5.33659 7.32812C6.44325 7.32812 7.32992 6.43479 7.32992 5.32812C7.32992 4.22146 6.44325 3.32812 5.33659 3.32812C4.22992 3.32812 3.33659 4.22146 3.33659 5.32812C3.33659 6.43479 4.22992 7.32812 5.33659 7.32812ZM5.33659 8.66146C3.78326 8.66146 0.669922 9.44146 0.669922 10.9948V12.6615H10.0033V10.9948C10.0033 9.44146 6.88992 8.66146 5.33659 8.66146ZM10.6699 8.66146C10.4766 8.66146 10.2566 8.67479 10.0233 8.69479C10.7966 9.25479 11.3366 10.0081 11.3366 10.9948V12.6615H15.3366V10.9948C15.3366 9.44146 12.2233 8.66146 10.6699 8.66146Z" fill="#565656"/>
</svg>
