<svg width="12" height="12" viewBox="0 0 12 12" fill="none" xmlns="http://www.w3.org/2000/svg">
<path d="M3.03571 1.5119V3.03571H1.5119V1.5119H3.03571ZM3.79762 10.6548V9.13095C3.79762 8.92888 3.71735 8.73509 3.57446 8.5922C3.43158 8.44932 3.23778 8.36905 3.03571 8.36905H1.5119C1.30984 8.36905 1.11604 8.44932 0.973157 8.5922C0.830272 8.73509 0.75 8.92888 0.75 9.13095V10.6548C0.75 10.8568 0.830272 11.0506 0.973157 11.1935C1.11604 11.3364 1.30984 11.4167 1.5119 11.4167H3.03571C3.23778 11.4167 3.43158 11.3364 3.57446 11.1935C3.71735 11.0506 3.79762 10.8568 3.79762 10.6548ZM3.79762 6.84524V5.32143C3.79762 5.11936 3.71735 4.92557 3.57446 4.78268C3.43158 4.6398 3.23778 4.55952 3.03571 4.55952H1.5119C1.30984 4.55952 1.11604 4.6398 0.973157 4.78268C0.830272 4.92557 0.75 5.11936 0.75 5.32143V6.84524C0.75 7.04731 0.830272 7.2411 0.973157 7.38399C1.11604 7.52687 1.30984 7.60714 1.5119 7.60714H3.03571C3.23778 7.60714 3.43158 7.52687 3.57446 7.38399C3.71735 7.2411 3.79762 7.04731 3.79762 6.84524ZM3.79762 3.03571V1.5119C3.79762 1.30984 3.71735 1.11604 3.57446 0.973157C3.43158 0.830272 3.23778 0.75 3.03571 0.75H1.5119C1.30984 0.75 1.11604 0.830272 0.973157 0.973157C0.830272 1.11604 0.75 1.30984 0.75 1.5119V3.03571C0.75 3.23778 0.830272 3.43158 0.973157 3.57446C1.11604 3.71735 1.30984 3.79762 1.5119 3.79762H3.03571C3.23778 3.79762 3.43158 3.71735 3.57446 3.57446C3.71735 3.43158 3.79762 3.23778 3.79762 3.03571ZM7.60714 10.6548V9.13095C7.60714 8.92888 7.52687 8.73509 7.38399 8.5922C7.2411 8.44932 7.04731 8.36905 6.84524 8.36905H5.32143C5.11936 8.36905 4.92557 8.44932 4.78268 8.5922C4.6398 8.73509 4.55952 8.92888 4.55952 9.13095V10.6548C4.55952 10.8568 4.6398 11.0506 4.78268 11.1935C4.92557 11.3364 5.11936 11.4167 5.32143 11.4167H6.84524C7.04731 11.4167 7.2411 11.3364 7.38399 11.1935C7.52687 11.0506 7.60714 10.8568 7.60714 10.6548ZM7.60714 6.84524V5.32143C7.60714 5.11936 7.52687 4.92557 7.38399 4.78268C7.2411 4.6398 7.04731 4.55952 6.84524 4.55952H5.32143C5.11936 4.55952 4.92557 4.6398 4.78268 4.78268C4.6398 4.92557 4.55952 5.11936 4.55952 5.32143V6.84524C4.55952 7.04731 4.6398 7.2411 4.78268 7.38399C4.92557 7.52687 5.11936 7.60714 5.32143 7.60714H6.84524C7.04731 7.60714 7.2411 7.52687 7.38399 7.38399C7.52687 7.2411 7.60714 7.04731 7.60714 6.84524ZM7.60714 3.03571V1.5119C7.60714 1.30984 7.52687 1.11604 7.38399 0.973157C7.2411 0.830272 7.04731 0.75 6.84524 0.75H5.32143C5.11936 0.75 4.92557 0.830272 4.78268 0.973157C4.6398 1.11604 4.55952 1.30984 4.55952 1.5119V3.03571C4.55952 3.23778 4.6398 3.43158 4.78268 3.57446C4.92557 3.71735 5.11936 3.79762 5.32143 3.79762H6.84524C7.04731 3.79762 7.2411 3.71735 7.38399 3.57446C7.52687 3.43158 7.60714 3.23778 7.60714 3.03571ZM6.84524 1.5119V3.03571H5.32143V1.5119H6.84524ZM10.6548 1.5119V3.03571H9.13095V1.5119H10.6548ZM3.03571 5.32143V6.84524H1.5119V5.32143H3.03571ZM6.84524 5.32143V6.84524H5.32143V5.32143H6.84524ZM10.6548 5.32143H9.13095V6.84524H10.6548V5.32143ZM3.03571 9.13095V10.6548H1.5119V9.13095H3.03571ZM6.84524 9.13095V10.6548H5.32143V9.13095H6.84524ZM10.6548 9.13095V10.6548H9.13095V9.13095H10.6548ZM9.13095 0.75C8.92888 0.75 8.73509 0.830272 8.5922 0.973157C8.44932 1.11604 8.36905 1.30984 8.36905 1.5119V3.03571C8.36905 3.23778 8.44932 3.43158 8.5922 3.57446C8.73509 3.71735 8.92888 3.79762 9.13095 3.79762H10.6548C10.8568 3.79762 11.0506 3.71735 11.1935 3.57446C11.3364 3.43158 11.4167 3.23778 11.4167 3.03571V1.5119C11.4167 1.30984 11.3364 1.11604 11.1935 0.973157C11.0506 0.830272 10.8568 0.75 10.6548 0.75H9.13095ZM8.36905 5.32143C8.36905 5.11936 8.44932 4.92557 8.5922 4.78268C8.73509 4.6398 8.92888 4.55952 9.13095 4.55952H10.6548C10.8568 4.55952 11.0506 4.6398 11.1935 4.78268C11.3364 4.92557 11.4167 5.11936 11.4167 5.32143V6.84524C11.4167 7.04731 11.3364 7.2411 11.1935 7.38399C11.0506 7.52687 10.8568 7.60714 10.6548 7.60714H9.13095C8.92888 7.60714 8.73509 7.52687 8.5922 7.38399C8.44932 7.2411 8.36905 7.04731 8.36905 6.84524V5.32143ZM9.13095 8.36905C8.92888 8.36905 8.73509 8.44932 8.5922 8.5922C8.44932 8.73509 8.36905 8.92888 8.36905 9.13095V10.6548C8.36905 10.8568 8.44932 11.0506 8.5922 11.1935C8.73509 11.3364 8.92888 11.4167 9.13095 11.4167H10.6548C10.8568 11.4167 11.0506 11.3364 11.1935 11.1935C11.3364 11.0506 11.4167 10.8568 11.4167 10.6548V9.13095C11.4167 8.92888 11.3364 8.73509 11.1935 8.5922C11.0506 8.44932 10.8568 8.36905 10.6548 8.36905H9.13095Z" fill="white"/>
</svg>
