<svg width="12" height="12" viewBox="0 0 12 12" fill="none" xmlns="http://www.w3.org/2000/svg">
<path d="M0.812447 3.41811C1.16892 3.41811 1.4579 3.12913 1.4579 2.77265C1.4579 2.41618 1.16892 2.1272 0.812447 2.1272C0.455972 2.1272 0.166992 2.41618 0.166992 2.77265C0.166992 3.12913 0.455972 3.41811 0.812447 3.41811Z" fill="#F03454"/>
<path d="M0.812447 6.6454C1.16892 6.6454 1.4579 6.35642 1.4579 5.99995C1.4579 5.64347 1.16892 5.35449 0.812447 5.35449C0.455972 5.35449 0.166992 5.64347 0.166992 5.99995C0.166992 6.35642 0.455972 6.6454 0.812447 6.6454Z" fill="#F03454"/>
<path d="M0.812447 9.8727C1.16892 9.8727 1.4579 9.58372 1.4579 9.22724C1.4579 8.87077 1.16892 8.58179 0.812447 8.58179C0.455972 8.58179 0.166992 8.87077 0.166992 9.22724C0.166992 9.58372 0.455972 9.8727 0.812447 9.8727Z" fill="#F03454"/>
<path d="M11.1787 5.35449H3.35575C3.02066 5.35449 2.74902 5.62613 2.74902 5.96122V6.03867C2.74902 6.37376 3.02066 6.6454 3.35575 6.6454H11.1787C11.5137 6.6454 11.7854 6.37376 11.7854 6.03867V5.96122C11.7854 5.62613 11.5137 5.35449 11.1787 5.35449Z" fill="#F03454"/>
<path d="M11.1787 8.58179H3.35575C3.02066 8.58179 2.74902 8.85343 2.74902 9.18852V9.26597C2.74902 9.60106 3.02066 9.8727 3.35575 9.8727H11.1787C11.5137 9.8727 11.7854 9.60106 11.7854 9.26597V9.18852C11.7854 8.85343 11.5137 8.58179 11.1787 8.58179Z" fill="#F03454"/>
<path d="M11.3935 2.1272H3.57059C3.23551 2.1272 2.96387 2.39884 2.96387 2.73392V2.81138C2.96387 3.14647 3.23551 3.41811 3.57059 3.41811H11.3935C11.7286 3.41811 12.0002 3.14647 12.0002 2.81138V2.73392C12.0002 2.39884 11.7286 2.1272 11.3935 2.1272Z" fill="#F03454"/>
</svg>
