<svg width="20" height="21" viewBox="0 0 20 21" fill="none" xmlns="http://www.w3.org/2000/svg">
<path d="M16.0881 11.0849V9.24569H14.7352V11.3793C14.7352 11.5679 14.8065 11.7488 14.9334 11.8821L16.7646 13.8074V14.9353H1.88224V13.8074L3.71344 11.8821C3.84032 11.7488 3.91161 11.5679 3.91165 11.3793V8.53448C3.90976 7.53509 4.15877 6.55287 4.6335 5.68704C5.10824 4.8212 5.7919 4.10241 6.61543 3.60326C7.43896 3.10412 8.3732 2.8423 9.32378 2.84424C10.2744 2.84619 11.2076 3.11184 12.0293 3.61435V2.02481C11.3854 1.72505 10.7005 1.53399 9.99988 1.45869V0H8.64694V1.45797C6.97915 1.63644 5.43355 2.45872 4.30899 3.76583C3.18443 5.07293 2.56081 6.772 2.55871 8.53448V11.0849L0.727503 13.0101C0.600631 13.1435 0.529335 13.3243 0.529297 13.5129V15.6466C0.529297 15.8352 0.600568 16.0161 0.72743 16.1495C0.854293 16.2828 1.02636 16.3578 1.20577 16.3578H5.94106V17.069C5.94106 18.0121 6.29741 18.9166 6.93173 19.5835C7.56604 20.2503 8.42636 20.625 9.32341 20.625C10.2205 20.625 11.0808 20.2503 11.7151 19.5835C12.3494 18.9166 12.7058 18.0121 12.7058 17.069V16.3578H17.4411C17.6205 16.3578 17.7925 16.2828 17.9194 16.1495C18.0463 16.0161 18.1175 15.8352 18.1175 15.6466V13.5129C18.1175 13.3243 18.0462 13.1435 17.9193 13.0101L16.0881 11.0849ZM11.3528 17.069C11.3528 17.6348 11.139 18.1775 10.7584 18.5777C10.3778 18.9778 9.86165 19.2026 9.32341 19.2026C8.78518 19.2026 8.26899 18.9778 7.8884 18.5777C7.50781 18.1775 7.294 17.6348 7.294 17.069V16.3578H11.3528V17.069Z" fill="#2F2F2F"/>
<path d="M16.7645 6.875C18.2589 6.875 19.4704 5.64378 19.4704 4.125C19.4704 2.60622 18.2589 1.375 16.7645 1.375C15.2701 1.375 14.0586 2.60622 14.0586 4.125C14.0586 5.64378 15.2701 6.875 16.7645 6.875Z" fill="#FE6160"/>
</svg>
