<svg width="21" height="20" viewBox="0 0 21 20" fill="none" xmlns="http://www.w3.org/2000/svg">
<path d="M7.487 3.06597L6.771 3.28197C6.13239 3.47434 5.56204 3.84516 5.12711 4.35079C4.69217 4.85641 4.41076 5.47578 4.316 6.13597C4.019 8.20397 4.683 10.622 6.284 13.395C7.881 16.161 9.639 17.943 11.574 18.723C12.1957 18.9735 12.8763 19.0403 13.5349 18.9153C14.1935 18.7904 14.8023 18.4789 15.289 18.018L15.832 17.504C16.1838 17.1707 16.4027 16.7211 16.4479 16.2387C16.4931 15.7563 16.3617 15.2738 16.078 14.881L14.722 13.001C14.5387 12.7472 14.2805 12.5571 13.9837 12.4574C13.6869 12.3577 13.3664 12.3533 13.067 12.445L11.016 13.072L10.963 13.082C10.737 13.115 10.216 12.626 9.566 11.5C8.886 10.322 8.744 9.63297 8.932 9.45497L9.976 8.48197C10.3572 8.12631 10.6176 7.66024 10.7205 7.14912C10.8235 6.638 10.7638 6.10748 10.55 5.63197L9.89 4.16097C9.6909 3.71787 9.33733 3.36239 8.89532 3.16089C8.45331 2.95939 7.95307 2.92565 7.488 3.06597H7.487ZM8.977 4.57097L9.638 6.04197C9.76654 6.3272 9.80248 6.64554 9.74078 6.95225C9.67908 7.25896 9.52283 7.53863 9.294 7.75197L8.248 8.72597C7.578 9.35897 7.8 10.442 8.699 12C9.546 13.466 10.318 14.19 11.147 14.064L11.271 14.038L13.359 13.401C13.4588 13.3703 13.5657 13.3717 13.6647 13.4048C13.7637 13.438 13.8498 13.5014 13.911 13.586L15.267 15.466C15.409 15.6624 15.4748 15.9038 15.4522 16.1451C15.4295 16.3864 15.32 16.6113 15.144 16.778L14.601 17.292C14.2533 17.621 13.8185 17.8433 13.3483 17.9325C12.878 18.0216 12.392 17.9739 11.948 17.795C10.25 17.111 8.645 15.484 7.15 12.895C5.652 10.3 5.046 8.09297 5.306 6.27797C5.37364 5.80628 5.57468 5.36374 5.88543 5.0025C6.19619 4.64125 6.60371 4.37634 7.06 4.23897L7.777 4.02297C8.00946 3.95312 8.25939 3.9702 8.48018 4.07103C8.70097 4.17186 8.87756 4.34955 8.977 4.57097Z" fill="#2F2F2F"/>
</svg>
