<svg width="16" height="16" viewBox="0 0 16 16" fill="none" xmlns="http://www.w3.org/2000/svg">
<path d="M12.8357 10.826L11.4917 9.37399C11.4401 9.31776 11.3787 9.27312 11.311 9.24266C11.2433 9.2122 11.1707 9.19652 11.0974 9.19652C11.0241 9.19652 10.9515 9.2122 10.8838 9.24266C10.8161 9.27312 10.7547 9.31776 10.7031 9.37399L8.71483 11.522C8.66335 11.5781 8.62263 11.6445 8.59499 11.7176C8.56735 11.7907 8.55334 11.869 8.55377 11.948V13.4C8.55377 13.5591 8.61228 13.7117 8.71643 13.8243C8.82059 13.9368 8.96185 14 9.10914 14H10.4532C10.5262 14.0004 10.5987 13.9853 10.6664 13.9555C10.734 13.9256 10.7956 13.8816 10.8475 13.826L12.8357 11.678C12.8878 11.6222 12.9291 11.5559 12.9573 11.4827C12.9855 11.4096 13 11.3312 13 11.252C13 11.1728 12.9855 11.0944 12.9573 11.0212C12.9291 10.9481 12.8878 10.8818 12.8357 10.826ZM10.2199 12.8H9.66452V12.2L11.0974 10.652L11.6528 11.252L10.2199 12.8ZM6.88764 12.8H4.66613C4.51883 12.8 4.37757 12.7368 4.27342 12.6243C4.16927 12.5117 4.11075 12.3591 4.11075 12.2V3.8C4.11075 3.64087 4.16927 3.48826 4.27342 3.37573C4.37757 3.26321 4.51883 3.2 4.66613 3.2H7.44301V5C7.44301 5.47739 7.61855 5.93522 7.93101 6.27279C8.24347 6.61035 8.66726 6.8 9.10914 6.8H10.7753V7.4C10.7753 7.55912 10.8338 7.71174 10.9379 7.82426C11.0421 7.93678 11.1834 7.99999 11.3306 7.99999C11.4779 7.99999 11.6192 7.93678 11.7234 7.82426C11.8275 7.71174 11.886 7.55912 11.886 7.4V6.2V6.164C11.8802 6.10888 11.8691 6.05457 11.8527 6.002V5.948C11.826 5.8863 11.7904 5.8296 11.7472 5.78L8.41492 2.18C8.36901 2.13333 8.31652 2.09485 8.25942 2.066C8.24284 2.06346 8.22601 2.06346 8.20943 2.066L8.03171 2H4.66613C4.22424 2 3.80046 2.18964 3.488 2.52721C3.17554 2.86477 3 3.32261 3 3.8V12.2C3 12.6774 3.17554 13.1352 3.488 13.4728C3.80046 13.8103 4.22424 14 4.66613 14H6.88764C7.03493 14 7.17619 13.9368 7.28035 13.8243C7.3845 13.7117 7.44301 13.5591 7.44301 13.4C7.44301 13.2409 7.3845 13.0882 7.28035 12.9757C7.17619 12.8632 7.03493 12.8 6.88764 12.8ZM8.55377 4.046L9.99219 5.6H9.10914C8.96185 5.6 8.82059 5.53678 8.71643 5.42426C8.61228 5.31174 8.55377 5.15913 8.55377 5V4.046ZM5.77688 9.19999H9.10914C9.25644 9.19999 9.3977 9.13678 9.50185 9.02426C9.60601 8.91174 9.66452 8.75912 9.66452 8.59999C9.66452 8.44086 9.60601 8.28825 9.50185 8.17573C9.3977 8.06321 9.25644 7.99999 9.10914 7.99999H5.77688C5.62959 7.99999 5.48833 8.06321 5.38417 8.17573C5.28002 8.28825 5.22151 8.44086 5.22151 8.59999C5.22151 8.75912 5.28002 8.91174 5.38417 9.02426C5.48833 9.13678 5.62959 9.19999 5.77688 9.19999ZM5.77688 6.8H6.33226C6.47955 6.8 6.62082 6.73678 6.72497 6.62426C6.82912 6.51174 6.88764 6.35913 6.88764 6.2C6.88764 6.04087 6.82912 5.88825 6.72497 5.77573C6.62082 5.66321 6.47955 5.6 6.33226 5.6H5.77688C5.62959 5.6 5.48833 5.66321 5.38417 5.77573C5.28002 5.88825 5.22151 6.04087 5.22151 6.2C5.22151 6.35913 5.28002 6.51174 5.38417 6.62426C5.48833 6.73678 5.62959 6.8 5.77688 6.8ZM6.88764 10.4H5.77688C5.62959 10.4 5.48833 10.4632 5.38417 10.5757C5.28002 10.6882 5.22151 10.8409 5.22151 11C5.22151 11.1591 5.28002 11.3117 5.38417 11.4243C5.48833 11.5368 5.62959 11.6 5.77688 11.6H6.88764C7.03493 11.6 7.17619 11.5368 7.28035 11.4243C7.3845 11.3117 7.44301 11.1591 7.44301 11C7.44301 10.8409 7.3845 10.6882 7.28035 10.5757C7.17619 10.4632 7.03493 10.4 6.88764 10.4Z" fill="#F03454"/>
</svg>
